<svg height="157" viewBox="0 0 1089.999 157" width="1089.999" xmlns="http://www.w3.org/2000/svg"><path d="m79.608 69.443h-22.152v53.65l22.152-20.323z" fill="#e67c15" fill-rule="evenodd" transform="translate(-31.387 -12.33)"/><path d="m83.491 64.328h-22.152v67.972l22.152 16.375z" fill="#e67c15" fill-rule="evenodd" opacity=".6" transform="translate(-6.052 -42.584)"/><path d="m87.374 124.549v-58.465h-22.151v76.374l2.6 1.914z" fill="#e67c15" fill-rule="evenodd" opacity=".4" transform="translate(19.29 -33.471)"/><path d="m69.107 61.438v86.232l22.137-22.45v-63.782z" fill="#e67c15" fill-rule="evenodd" opacity=".2" transform="translate(44.632 -61.438)"/><path d="m141.6 135.357-33.58-24.8-54.028 49.543 13.115 14.37 42.264-44.916 33.609 22.207 66.32-81.812-1.76-1.473z" fill="#e67c15" fill-rule="evenodd" transform="translate(-53.992 -17.47)"/><path d="m72.647 77.377 11.868 3.281 4.02 11.8 7.848-25.382z" fill="#e67c15" fill-rule="evenodd" transform="translate(67.735 -22.833)"/><g fill="#0269ef"><path d="m100.241 78.788h-22.01v-11.558h56.791v11.558h-22v60.237h-12.781z" transform="translate(110.451 -26.355)"/><path d="m88.446 105.015a41.476 41.476 0 0 1 2.837-15.659 35.139 35.139 0 0 1 7.856-12.025 34.461 34.461 0 0 1 11.961-7.653 42.017 42.017 0 0 1 15.268-2.686 42.509 42.509 0 0 1 15.411 2.483 33.525 33.525 0 0 1 12.07 7.555 34.865 34.865 0 0 1 7.909 11.957 41.343 41.343 0 0 1 2.837 15.622 39.934 39.934 0 0 1 -2.837 15.313 35.033 35.033 0 0 1 -7.909 11.859 36.065 36.065 0 0 1 -12.07 7.758 42.71 42.71 0 0 1 -15.411 2.89 42.015 42.015 0 0 1 -15.268-2.679 34.251 34.251 0 0 1 -19.821-19.429 39.726 39.726 0 0 1 -2.833-15.306zm13.387-.805a30.686 30.686 0 0 0 1.776 10.64 24.977 24.977 0 0 0 5.012 8.42 23.434 23.434 0 0 0 7.758 5.576 24.352 24.352 0 0 0 10.1 2.017 24.654 24.654 0 0 0 10.136-2.017 23.264 23.264 0 0 0 7.811-5.576 25.118 25.118 0 0 0 5.019-8.42 31.042 31.042 0 0 0 1.768-10.64 28.2 28.2 0 0 0 -1.768-10.046 24.857 24.857 0 0 0 -5.021-8.164 23.094 23.094 0 0 0 -7.811-5.471 25.143 25.143 0 0 0 -10.136-1.987 24.833 24.833 0 0 0 -10.1 1.987 23.257 23.257 0 0 0 -7.757 5.471 24.713 24.713 0 0 0 -5.012 8.165 27.876 27.876 0 0 0 -1.775 10.045z" transform="translate(177.103 -27.937)"/><path d="m169.327 135.33a61.981 61.981 0 0 1 -29.709 7.1 42.016 42.016 0 0 1 -15.268-2.679 34.252 34.252 0 0 1 -19.821-19.43 39.725 39.725 0 0 1 -2.837-15.306 41.475 41.475 0 0 1 2.837-15.659 35.138 35.138 0 0 1 7.856-12.025 34.389 34.389 0 0 1 11.965-7.653 42.017 42.017 0 0 1 15.268-2.686 58.024 58.024 0 0 1 15.411 1.972 31.875 31.875 0 0 1 12.883 7.051l-9.436 9.527a23.683 23.683 0 0 0 -8.368-5.17 29.724 29.724 0 0 0 -10.392-1.829 24.822 24.822 0 0 0 -10.091 1.987 23.255 23.255 0 0 0 -7.758 5.47 24.714 24.714 0 0 0 -5.012 8.165 27.876 27.876 0 0 0 -1.776 10.046 30.686 30.686 0 0 0 1.776 10.64 24.979 24.979 0 0 0 5.012 8.42 23.431 23.431 0 0 0 7.758 5.576 24.34 24.34 0 0 0 10.091 2.017 44.75 44.75 0 0 0 9.18-.9 26.292 26.292 0 0 0 7.66-2.837v-16.938h-14.71v-11.566h27.481z" transform="translate(263.54 -27.934)"/><path d="m114.712 67.23h47.565v11.558h-34.788v17.646h32.959v11.566h-32.959v19.46h36.611v11.566h-49.388z" transform="translate(348.488 -26.355)"/><path d="m146.007 78.788h-22.007v-11.558h56.78v11.558h-22v60.237h-12.77z" transform="translate(409.072 -26.355)"/><path d="m134.724 67.23h12.77v28.595h33.569v-28.595h12.777v71.8h-12.777v-31.647h-33.569v31.642h-12.77z" transform="translate(479.066 -26.355)"/><path d="m146.731 67.23h47.569v11.558h-34.792v17.646h32.959v11.566h-32.959v19.46h36.609v11.566h-49.386z" transform="translate(557.411 -26.355)"/><path d="m156.987 67.23h24.945a51.073 51.073 0 0 1 9.986.963 25.773 25.773 0 0 1 8.563 3.3 17.256 17.256 0 0 1 5.982 6.283 20.258 20.258 0 0 1 2.237 10.042 19.988 19.988 0 0 1 -4.312 13.078q-4.312 5.282-12.318 6.389l19.068 31.74h-15.42l-16.618-30.415h-9.338v30.416h-12.77zm22.713 30.416q2.732 0 5.478-.248a16.809 16.809 0 0 0 5.019-1.219 8.55 8.55 0 0 0 3.7-2.935 9.4 9.4 0 0 0 1.422-5.523 8.85 8.85 0 0 0 -1.324-5.072 8.266 8.266 0 0 0 -3.446-2.9 15.956 15.956 0 0 0 -4.711-1.264 43.084 43.084 0 0 0 -5.027-.309h-11.054v19.47z" transform="translate(624.331 -26.355)"/><path d="m230.9 129.347a30.417 30.417 0 0 1 -11.965 10.038 35.621 35.621 0 0 1 -14.7 3.04 39.625 39.625 0 0 1 -15.065-2.792 33.757 33.757 0 0 1 -11.709-7.8 35.907 35.907 0 0 1 -7.608-11.965 43.3 43.3 0 0 1 0-30.273 36.132 36.132 0 0 1 7.608-11.912 34.521 34.521 0 0 1 11.709-7.856 38.93 38.93 0 0 1 15.065-2.837 35.792 35.792 0 0 1 13.643 2.581 27.12 27.12 0 0 1 11.1 8.669l-5.478 4.565a19.955 19.955 0 0 0 -8.578-7.4 25.931 25.931 0 0 0 -10.693-2.333 31.6 31.6 0 0 0 -12.623 2.428 28.189 28.189 0 0 0 -9.579 6.7 29.616 29.616 0 0 0 -6.088 10.038 37.591 37.591 0 0 0 0 24.945 29.689 29.689 0 0 0 6.088 10.038 28.274 28.274 0 0 0 9.579 6.69 31.467 31.467 0 0 0 12.627 2.438 26.093 26.093 0 0 0 5.674-.662 25.123 25.123 0 0 0 5.727-2.032 27.072 27.072 0 0 0 5.335-3.446 21.729 21.729 0 0 0 4.455-5.012z" transform="translate(690.448 -27.934)"/><path d="m179.248 67.23h43v6.088h-36.3v25.554h33.762v6.08h-33.765v34.073h-6.7z" transform="translate(769.583 -26.355)"/><path d="m188.144 104.711a40.531 40.531 0 0 1 2.732-15.118 36.129 36.129 0 0 1 7.608-11.912 34.446 34.446 0 0 1 11.709-7.856 41.4 41.4 0 0 1 30.122 0 34.519 34.519 0 0 1 11.709 7.856 36.013 36.013 0 0 1 7.608 11.912 43.192 43.192 0 0 1 0 30.273 35.79 35.79 0 0 1 -7.608 11.965 33.755 33.755 0 0 1 -11.709 7.8 42.023 42.023 0 0 1 -30.122 0 33.685 33.685 0 0 1 -11.709-7.8 35.9 35.9 0 0 1 -7.608-11.965 40.87 40.87 0 0 1 -2.732-15.155zm6.69 0a35.686 35.686 0 0 0 2.13 12.469 29.668 29.668 0 0 0 6.08 10.038 28.347 28.347 0 0 0 9.579 6.69 33.915 33.915 0 0 0 25.254 0 28.157 28.157 0 0 0 9.587-6.69 29.549 29.549 0 0 0 6.08-10.038 37.591 37.591 0 0 0 0-24.945 29.477 29.477 0 0 0 -6.08-10.038 28.073 28.073 0 0 0 -9.587-6.7 34.014 34.014 0 0 0 -25.254 0 28.262 28.262 0 0 0 -9.579 6.7 29.6 29.6 0 0 0 -6.08 10.038 35.759 35.759 0 0 0 -2.13 12.476z" transform="translate(827.629 -27.934)"/></g></svg>