<svg xmlns="http://www.w3.org/2000/svg" viewBox="0 0 1090 157"><defs><style>.a,.b,.c,.d,.e{fill:#231f20;}.a,.b,.c,.d{fill-rule:evenodd;}.b{opacity:0.6;}.b,.c,.d{isolation:isolate;}.c{opacity:0.4;}.d{opacity:0.2;}</style></defs><path class="a" d="M48.2,57.1H26.1v53.7L48.2,90.4Z" transform="translate(0 0)"/><path class="b" d="M77.4,21.7H55.3v68l22.1,16.4Z" transform="translate(0 0)"/><path class="c" d="M106.7,91.1V32.6H84.5V109l2.6,1.9Z" transform="translate(0 0)"/><path class="d" d="M113.7,0V86.2l22.2-22.4V0Z" transform="translate(0 0)"/><path class="a" d="M87.6,117.9,54,93.1,0,142.6,13.1,157l42.3-44.9L89,134.3l66.3-81.8L153.5,51Z" transform="translate(0 0)"/><path class="a" d="M140.4,54.5l11.9,3.3,4,11.8,7.8-25.4Z" transform="translate(0 0)"/><path class="e" d="M210.7,52.4h-22V40.9h56.8V52.4h-22v60.3H210.7Z" transform="translate(0 0)"/><path class="e" d="M265.5,77.1a42,42,0,0,1,2.9-15.7,34.1,34.1,0,0,1,7.8-12,34.8,34.8,0,0,1,12-7.7,42.1,42.1,0,0,1,15.3-2.6,42.8,42.8,0,0,1,15.4,2.4A34.9,34.9,0,0,1,331,49.1a35.8,35.8,0,0,1,7.9,12,41.1,41.1,0,0,1,2.8,15.6A40.3,40.3,0,0,1,338.9,92a35,35,0,0,1-7.9,11.8,35.4,35.4,0,0,1-12.1,7.8,42.9,42.9,0,0,1-15.4,2.9,42.2,42.2,0,0,1-15.3-2.7,34.4,34.4,0,0,1-19.8-19.4A40.4,40.4,0,0,1,265.5,77.1Zm13.4-.8a31.9,31.9,0,0,0,1.8,10.6,24.7,24.7,0,0,0,5,8.4,22.9,22.9,0,0,0,7.8,5.6,26.5,26.5,0,0,0,20.2,0,22.9,22.9,0,0,0,7.8-5.6,24.7,24.7,0,0,0,5-8.4,27.5,27.5,0,0,0,1.8-10.6,28.7,28.7,0,0,0-1.8-10.1,23.4,23.4,0,0,0-5-8.1,22.6,22.6,0,0,0-7.8-5.5,26.5,26.5,0,0,0-20.2,0,22.6,22.6,0,0,0-7.8,5.5,23.4,23.4,0,0,0-5,8.1A28.7,28.7,0,0,0,278.9,76.3Z" transform="translate(0 0)"/><path class="e" d="M432.9,107.4a62.8,62.8,0,0,1-29.7,7.1,41.8,41.8,0,0,1-15.3-2.7,33.8,33.8,0,0,1-19.8-19.4,40.4,40.4,0,0,1-2.9-15.3,42,42,0,0,1,2.9-15.7,34,34,0,0,1,19.8-19.7,41.7,41.7,0,0,1,15.3-2.6A57.5,57.5,0,0,1,418.6,41a32.1,32.1,0,0,1,12.9,7.1L422,57.6a24.2,24.2,0,0,0-8.4-5.2,30.2,30.2,0,0,0-10.3-1.8,25,25,0,0,0-10.1,2,22.6,22.6,0,0,0-7.8,5.5,23.4,23.4,0,0,0-5,8.1,28.7,28.7,0,0,0-1.8,10.1,31.9,31.9,0,0,0,1.8,10.6,24.7,24.7,0,0,0,5,8.4,22.9,22.9,0,0,0,7.8,5.6,23.1,23.1,0,0,0,10.1,2,46.8,46.8,0,0,0,9.1-.9,26.4,26.4,0,0,0,7.7-2.8V82.3H405.4V70.7h27.5Z" transform="translate(0 0)"/><path class="e" d="M463.2,40.9h47.6V52.4H476V70.1h32.9V81.6H476v19.5h36.6v11.6H463.2Z" transform="translate(0 0)"/><path class="e" d="M555.1,52.4h-22V40.9h56.8V52.4h-22v60.3H555.1Z" transform="translate(0 0)"/><path class="e" d="M613.8,40.9h12.8V69.5h33.5V40.9h12.8v71.8H660.1V81H626.6v31.7H613.8Z" transform="translate(0 0)"/><path class="e" d="M704.1,40.9h47.6V52.4H716.9V70.1h33V81.6h-33v19.5h36.6v11.6H704.1Z" transform="translate(0 0)"/><path class="e" d="M781.3,40.9h25a54.4,54.4,0,0,1,9.9.9,25.6,25.6,0,0,1,8.6,3.3,18.1,18.1,0,0,1,6,6.3A19.7,19.7,0,0,1,833,61.5a19.3,19.3,0,0,1-4.3,13c-2.9,3.6-7,5.7-12.3,6.4l19.1,31.8H820L803.4,82.3h-9.3v30.4H781.3ZM804,71.3a49.3,49.3,0,0,0,5.5-.3,14.6,14.6,0,0,0,5-1.2,8.2,8.2,0,0,0,3.7-2.9,8.4,8.4,0,0,0,1.4-5.5,8.3,8.3,0,0,0-1.3-5.1,7.4,7.4,0,0,0-3.4-2.9,15.7,15.7,0,0,0-4.7-1.3,43.6,43.6,0,0,0-5.1-.3h-11V71.3Z" transform="translate(0 0)"/><path class="e" d="M921.3,101.4a30.7,30.7,0,0,1-11.9,10.1,37.2,37.2,0,0,1-14.7,3,40.9,40.9,0,0,1-15.1-2.8,32.9,32.9,0,0,1-11.7-7.8,35,35,0,0,1-7.6-12,43.6,43.6,0,0,1,0-30.2,34,34,0,0,1,19.3-19.8,38.9,38.9,0,0,1,15.1-2.8,34.9,34.9,0,0,1,13.6,2.5,27.2,27.2,0,0,1,11.1,8.7l-5.5,4.6a19.1,19.1,0,0,0-8.5-7.4,24.9,24.9,0,0,0-10.7-2.4,31.8,31.8,0,0,0-12.6,2.5,26.9,26.9,0,0,0-9.6,6.7,28.7,28.7,0,0,0-6.1,10,36.7,36.7,0,0,0,0,24.9A28.3,28.3,0,0,0,882.1,106a30.1,30.1,0,0,0,12.6,2.4,27.6,27.6,0,0,0,5.7-.6,30.1,30.1,0,0,0,5.7-2.1,26.6,26.6,0,0,0,5.3-3.4,21.3,21.3,0,0,0,4.5-5Z" transform="translate(0 0)"/><path class="e" d="M948.8,40.9h43V47H955.5V72.5h33.8v6.1H955.5v34.1h-6.7Z" transform="translate(0 0)"/><path class="e" d="M1015.8,76.8a38.8,38.8,0,0,1,2.7-15.1,36,36,0,0,1,7.6-12,34.3,34.3,0,0,1,11.7-7.8,41.2,41.2,0,0,1,30.1,0,37.3,37.3,0,0,1,11.8,7.8,37.7,37.7,0,0,1,7.6,12,43.6,43.6,0,0,1,0,30.2,36.6,36.6,0,0,1-7.6,12,34.7,34.7,0,0,1-11.8,7.8,42.2,42.2,0,0,1-30.1,0,32.9,32.9,0,0,1-11.7-7.8,35,35,0,0,1-7.6-12,38.8,38.8,0,0,1-2.7-15.1Zm6.7,0a33,33,0,0,0,2.1,12.4,28.3,28.3,0,0,0,15.7,16.8,34.3,34.3,0,0,0,25.2,0,29.2,29.2,0,0,0,9.6-6.7,29.7,29.7,0,0,0,6.1-10.1,38,38,0,0,0,0-24.9,30.2,30.2,0,0,0-6.1-10,27.8,27.8,0,0,0-9.6-6.7,33.3,33.3,0,0,0-25.2,0,26.9,26.9,0,0,0-9.6,6.7,28.7,28.7,0,0,0-6.1,10A33.2,33.2,0,0,0,1022.5,76.8Z" transform="translate(0 0)"/></svg>